# xmcd CD database file
#
# Track frame offsets:
#	150
#	19127
#	40351
#	58654
#	78898
#	98340
#	116156
#	131823
#	150731
#	171434
#	188588
#	208386
#	234391
#	249976
#
# Disc length: 3688 seconds
#
# Revision: 5
# Processed by: cddbd v1.5.2PL0 Copyright (c) Steve Scherf et al.
# Submitted via: CDex 1.51
#
DISCID=b90e660e
DTITLE=Zeze di Camargo and Luciano - Zeze di Camardo and Luciano e amigos
DYEAR=2002
DGENRE=MPB
TTITLE0=Sem medo de ser feliz
TTITLE1=Felicidade que saudade de você
TTITLE2=Indiferença
TTITLE3=É o amor
TTITLE4=Amor Selvagem
TTITLE5=Voce vai ver
TTITLE6=Viola enluarada - Vamos dar as mãos e cantar
TTITLE7=Eu só penso em você
TTITLE8=Te amo cada vez mais
TTITLE9=Toma juízo
TTITLE10=Será que foi saudade?
TTITLE11=Preciso ser amado
TTITLE12=Não aprendi a dizer adeus
TTITLE13=Andança
EXTD=YEAR: 2002
EXTT0=
EXTT1=
EXTT2=
EXTT3=
EXTT4=
EXTT5=
EXTT6=
EXTT7=
EXTT8=
EXTT9=
EXTT10=
EXTT11=
EXTT12=
EXTT13=
PLAYORDER=
